<?xml version="1.0" standalone="no"?>
<!DOCTYPE svg PUBLIC "-//W3C//DTD SVG 20010904//EN"
 "http://www.w3.org/TR/2001/REC-SVG-20010904/DTD/svg10.dtd">
<svg version="1.0" xmlns="http://www.w3.org/2000/svg"
 width="512.000000pt" height="512.000000pt" viewBox="0 0 512.000000 512.000000"
 preserveAspectRatio="xMidYMid meet">
<metadata>
Created by potrace 1.14, written by Peter Selinger 2001-2017
</metadata>
<g transform="translate(0.000000,512.000000) scale(0.100000,-0.100000)"
fill="#000000" stroke="none">
<path d="M4449 5111 c-14 -5 -347 -210 -740 -457 -392 -246 -721 -447 -729
-447 -8 1 -60 15 -115 33 -120 37 -261 65 -409 81 l-110 11 -95 98 c-168 171
-363 292 -546 341 -113 30 -318 38 -367 15 -65 -31 -144 -165 -174 -296 -24
-101 -17 -349 12 -424 4 -10 -8 -22 -38 -37 -143 -73 -293 -206 -361 -320 -76
-130 -105 -300 -74 -444 l16 -70 -53 -50 c-149 -140 -217 -289 -219 -479 0
-106 19 -193 71 -315 l35 -85 -18 -30 c-92 -153 -125 -256 -125 -384 0 -176
69 -326 221 -483 30 -30 71 -70 92 -87 l38 -32 -16 -75 c-26 -116 -17 -296 19
-398 89 -251 299 -437 650 -577 120 -49 121 -49 159 -107 20 -32 47 -66 58
-75 20 -17 107 -18 1516 -18 1117 0 1500 3 1516 12 40 21 46 39 47 138 1 250
-117 438 -351 559 -122 64 -283 170 -377 248 -75 62 -232 214 -232 224 0 4 37
10 82 14 45 4 123 17 173 30 437 111 676 407 710 881 36 503 -294 954 -775
1060 -41 9 -77 18 -79 20 -2 1 84 175 192 386 541 1064 650 1287 654 1335 13
131 -129 243 -258 204z m82 -177 c11 -13 2 -38 -61 -165 -41 -82 -77 -149 -80
-149 -3 0 -41 36 -84 79 l-79 80 68 43 c38 24 98 62 134 85 74 47 83 49 102
27z m-334 -366 l111 -111 -56 -114 c-31 -62 -59 -113 -62 -113 -9 0 -324 319
-320 323 17 16 197 127 205 127 5 0 60 -50 122 -112z m-2577 47 c202 -42 411
-182 595 -397 37 -42 45 -47 95 -52 193 -19 276 -30 360 -48 475 -101 789
-352 918 -734 22 -65 52 -220 52 -271 0 -19 9 -43 23 -59 20 -23 33 -27 115
-35 224 -21 403 -106 550 -263 157 -168 232 -386 218 -632 -22 -394 -217 -644
-571 -732 -113 -28 -144 -33 -310 -41 -138 -6 -149 -8 -166 -30 -39 -48 -27
-82 69 -193 194 -226 431 -417 693 -558 63 -33 133 -80 157 -103 56 -55 111
-166 119 -240 l6 -57 -1410 0 -1411 0 -61 103 c-466 775 -614 1681 -435 2657
36 193 104 451 164 620 81 229 79 199 27 325 -118 289 -135 508 -51 683 l35
72 74 0 c40 0 106 -7 145 -15z m2298 -358 l194 -194 -59 -116 c-31 -65 -60
-117 -63 -117 -3 0 -115 110 -250 245 -192 193 -242 248 -230 255 8 5 53 33
100 64 47 30 92 55 100 55 8 1 102 -86 208 -192z m-81 -733 l-71 -143 -27 73
c-36 99 -110 239 -164 310 -93 125 -246 262 -366 331 l-39 22 87 55 88 55 282
-280 281 -280 -71 -143z m-2583 293 l27 -63 -40 -104 c-21 -58 -47 -133 -56
-167 l-17 -62 -72 -24 c-39 -14 -105 -41 -147 -60 l-77 -35 -6 30 c-24 123 27
269 133 381 46 50 201 165 222 167 3 0 18 -28 33 -63z m-214 -873 c-33 -143
-63 -267 -66 -276 -3 -10 -35 -39 -72 -65 -37 -26 -104 -80 -148 -120 l-82
-72 -23 72 c-20 59 -24 93 -24 187 0 110 1 118 33 183 39 79 131 182 214 238
58 40 219 122 225 115 2 -2 -24 -120 -57 -262z"/>
<path d="M1568 4424 c-53 -16 -78 -44 -78 -87 0 -61 49 -94 112 -76 116 33
210 -22 279 -161 42 -87 64 -110 106 -110 42 0 83 38 83 77 0 15 -20 68 -44
118 -60 123 -144 204 -242 235 -76 23 -149 25 -216 4z"/>
<path d="M2295 3065 c-20 -20 -25 -34 -25 -78 0 -197 159 -380 365 -418 235
-43 469 120 515 360 5 30 10 65 10 78 0 33 -51 83 -85 83 -40 0 -85 -50 -85
-94 0 -58 -36 -138 -83 -184 -79 -78 -204 -103 -297 -61 -104 47 -151 109
-174 229 -10 53 -20 79 -36 92 -32 26 -76 23 -105 -7z"/>
</g>
</svg>
